<?xml version="1.0" encoding="utf-8"?>
<!-- Generator: Adobe Illustrator 21.0.0, SVG Export Plug-In . SVG Version: 6.00 Build 0)  -->
<svg version="1.1" id="Слой_1" xmlns="http://www.w3.org/2000/svg" xmlns:xlink="http://www.w3.org/1999/xlink" x="0px" y="0px"
	 viewBox="0 0 92 27" style="enable-background:new 0 0 92 27;" xml:space="preserve">
<style type="text/css">
	.st0{fill:#545861;}
	.st1{fill:none;stroke:#545861;stroke-width:2;stroke-miterlimit:10;}
</style>
<g>
	<rect x="-0.5" y="12.5" class="st0" width="2" height="2"/>
	<rect x="3.5" y="12.5" class="st0" width="2" height="2"/>
	<rect x="7.5" y="12.5" class="st0" width="2" height="2"/>
	<rect x="47.5" y="12.5" class="st0" width="2" height="2"/>
	<rect x="59.5" y="12.5" class="st0" width="2" height="2"/>
	<rect x="55.5" y="12.5" class="st0" width="2" height="2"/>
	<rect x="51.5" y="12.5" class="st0" width="2" height="2"/>
	<rect x="63.5" y="12.5" class="st0" width="2" height="2"/>
	<rect x="67.5" y="12.5" class="st0" width="2" height="2"/>
	<rect x="75.5" y="12.5" class="st0" width="2" height="2"/>
	<rect x="79.5" y="12.5" class="st0" width="2" height="2"/>
	<rect x="71.5" y="12.5" class="st0" width="2" height="2"/>
	<rect x="11.5" y="12.5" class="st0" width="2" height="2"/>
	<rect x="23.5" y="12.5" class="st0" width="2" height="2"/>
	<rect x="27.5" y="12.5" class="st0" width="2" height="2"/>
	<rect x="19.5" y="12.5" class="st0" width="2" height="2"/>
	<rect x="15.5" y="12.5" class="st0" width="2" height="2"/>
	<rect x="35.5" y="12.5" class="st0" width="2" height="2"/>
	<rect x="31.5" y="12.5" class="st0" width="2" height="2"/>
	<rect x="39.5" y="12.5" class="st0" width="2" height="2"/>
	<rect x="43.5" y="12.5" class="st0" width="2" height="2"/>
	<rect x="83.5" y="12.5" class="st0" width="2" height="2"/>
</g>
<polyline class="st1" points="77,1 90,13 78,26 "/>
</svg>
