<?xml version="1.0" encoding="utf-8"?>
<!-- Generator: Adobe Illustrator 21.0.0, SVG Export Plug-In . SVG Version: 6.00 Build 0)  -->
<svg version="1.1" id="Слой_1" xmlns="http://www.w3.org/2000/svg" xmlns:xlink="http://www.w3.org/1999/xlink" x="0px" y="0px"
	 viewBox="0 0 512 512" style="enable-background:new 0 0 512 512;" xml:space="preserve">
<style type="text/css">
	.st0{fill:#B7E4EF;}
	.st1{fill:#00AD85;}
	.st2{fill:#545861;}
</style>
<rect x="20" y="103" class="st0" width="472" height="136"/>
<rect x="88" y="192" class="st1" width="60" height="91"/>
<rect x="367" y="192" class="st1" width="55" height="91"/>
<g>
	<path class="st2" d="M372.8,93.4V50.6c0-21.4-16.7-39.6-38.6-39.6H164.3c-20.9,0-38.6,17.1-38.6,39.6v42.8H11V501h490V93.4H372.8z
		 M144.4,50.6c0-11.8,9.4-20.3,19.8-20.3h169.9c11.5,0,19.8,9.6,19.8,20.3v42.8H144.4V50.6z M481.2,113.7v118.8h-48v-49.2H354v49.2
		H158v-49.2H78.8v49.2h-48V113.7H481.2z M414.5,203.6v73.8h-40.7v-73.8L414.5,203.6L414.5,203.6z M139.2,203.6v73.8H98.6v-73.8
		L139.2,203.6L139.2,203.6z M30.8,480.7V252.8h48v44.9H158v-44.9h196v44.9h79.2v-44.9h48v227.9H30.8z"/>
</g>
</svg>
