<?xml version="1.0" encoding="utf-8"?>
<!-- Generator: Adobe Illustrator 21.0.0, SVG Export Plug-In . SVG Version: 6.00 Build 0)  -->
<svg version="1.1" id="Layer_1" xmlns="http://www.w3.org/2000/svg" xmlns:xlink="http://www.w3.org/1999/xlink" x="0px" y="0px"
	 viewBox="0 0 496.2 496.2" style="enable-background:new 0 0 496.2 496.2;" xml:space="preserve">
<style type="text/css">
	.st0{fill:#00AD85;}
	.st1{fill:#FFFFFF;}
</style>
<path class="st0" d="M496.2,248.1C496.2,111.1,385.1,0,248.1,0S0,111.1,0,248.1s111.1,248.1,248.1,248.1S496.2,385.1,496.2,248.1z"
	/>
<path class="st1" d="M417.6,144.9c-7.2-18.7-22-15.7-38-12.6c-9.6,2-52.1,14.4-119.3,85.4c-27.9,29.4-46.3,52.9-58.5,70.8
	c-7.4-9.1-15.9-18.8-24.8-27.7c-27.4-27.4-58-46.2-59.3-47c-12.8-7.8-29.6-3.8-37.4,9c-7.9,12.8-3.8,29.6,9,37.5
	c0.3,0.2,26.5,16.4,49.2,39.1c23.1,23.1,44.1,54.4,44.3,54.7c5.1,7.7,13.7,12.1,22.7,12.1c1.5,0,3.1-0.1,4.7-0.4
	c10.6-1.8,19.2-9.8,21.8-20.3c0.1-0.3,10.9-30.1,67.9-90.3c46-48.5,76.6-63.9,87.2-68.2c0.1,0,0.2,0,0.3-0.1c-0.1,0,0.3-0.2,1-0.5
	c1.8-0.7,2.8-0.9,2.9-1c-0.5,0.1-0.8,0.2-0.8,0.2v-0.1c4.9-2.1,14.1-6.1,14.3-6.2C418.5,173.8,423,158.9,417.6,144.9z"/>
</svg>
