<?xml version="1.0" encoding="utf-8"?>
<!-- Generator: Adobe Illustrator 21.0.0, SVG Export Plug-In . SVG Version: 6.00 Build 0)  -->
<svg version="1.1" id="Layer_1" xmlns="http://www.w3.org/2000/svg" xmlns:xlink="http://www.w3.org/1999/xlink" x="0px" y="0px"
	 viewBox="0 0 512 512" style="enable-background:new 0 0 512 512;" xml:space="preserve">
<style type="text/css">
	.st0{fill:#00AD85;}
	.st1{fill:#B7E4EF;stroke:#000000;stroke-miterlimit:10;}
	.st2{fill:#545861;}
</style>
<ellipse class="st0" cx="268" cy="107" rx="65" ry="61"/>
<path class="st1" d="M7.3,232.2L115,251c0,0-35.7,178-40.3,178S4,427,4,427L7.3,232.2z"/>
<g>
	<g>
		<path class="st2" d="M124.7,248.6c-18.3-17.3-91.4-22.9-113.4-24.2c-3-0.1-5.8,0.9-8,2.9c-2.1,2-3.3,4.8-3.3,7.8v192
			c0,5.9,4.8,10.7,10.7,10.7h64c4.6,0,8.7-3,10.1-7.4c1.6-4.8,38.3-117.6,43.2-173.1C128.2,254,127,250.8,124.7,248.6z M66.9,416.3
			H21.3V246.4c34.3,2.7,71.3,8.6,84.7,15.1C100.4,308.3,74.8,391.3,66.9,416.3z"/>
	</g>
</g>
<g>
	<g>
		<path class="st2" d="M510.9,379.5c-14.8-29.6-47.6-44.7-79.7-36.7l-81.7,20.4c-5.7,1.4-9.2,7.2-7.8,12.9c1.4,5.7,7.2,9.2,12.9,7.8
			l81.7-20.4c18.6-4.6,37.6,1.9,49.4,16.1l-105.7,48.1c-89.7,36.7-92.8,35.6-131.2,21.1l-160-53.3c-5.6-1.9-11.6,1.2-13.5,6.7
			s1.2,11.6,6.7,13.5L241.6,469c17.9,6.8,30.3,10.7,44.2,10.7c21.6,0,47-9.5,102.7-32.3L505.8,394c2.6-1.2,4.7-3.4,5.6-6.1
			C512.4,385.1,512.2,382.2,510.9,379.5z"/>
	</g>
</g>
<g>
	<g>
		<path class="st2" d="M311.6,309.9l-192-42.7c-5.7-1.2-11.5,2.4-12.7,8.1c-1.3,5.8,2.3,11.5,8.1,12.7l191.7,42.6
			c23.6,5.9,33.1,15.2,34.4,34.7l-20.5,5.1c-7.6,1.9-15.7,2.1-23.4,0.6l-92.5-18.5c-5.9-1.3-11.4,2.6-12.5,8.4
			c-1.2,5.8,2.6,11.4,8.4,12.5l92.6,18.5c4.8,1,9.7,1.4,14.6,1.4c6.1,0,12.2-0.7,18.1-2.2l28.7-7.2c4.8-1.2,8.1-5.5,8.1-10.3v-3.4
			C362.7,337.4,347,318.8,311.6,309.9z"/>
	</g>
</g>
<g>
	<g>
		<path class="st2" d="M394.7,160.3c-41.2,0-74.7,33.5-74.7,74.7s33.5,74.7,74.7,74.7s74.7-33.5,74.7-74.7S435.8,160.3,394.7,160.3z
			 M394.7,288.3c-29.4,0-53.3-23.9-53.3-53.3s23.9-53.3,53.3-53.3S448,205.6,448,235S424.1,288.3,394.7,288.3z"/>
	</g>
</g>
<g>
	<g>
		<path class="st2" d="M394.7,203c-5.9,0-10.7,4.8-10.7,10.7v42.7c0,5.9,4.8,10.7,10.7,10.7s10.7-4.8,10.7-10.7v-42.7
			C405.3,207.8,400.6,203,394.7,203z"/>
	</g>
</g>
<g>
	<g>
		<path class="st2" d="M266.7,32.3c-41.2,0-74.7,33.5-74.7,74.7s33.5,74.7,74.7,74.7s74.7-33.5,74.7-74.7S307.8,32.3,266.7,32.3z
			 M266.7,160.3c-29.4,0-53.3-23.9-53.3-53.3s23.9-53.3,53.3-53.3S320,77.6,320,107S296.1,160.3,266.7,160.3z"/>
	</g>
</g>
<g>
	<g>
		<path class="st2" d="M266.7,75c-5.9,0-10.7,4.8-10.7,10.7v42.7c0,5.9,4.8,10.7,10.7,10.7s10.7-4.8,10.7-10.7V85.7
			C277.3,79.8,272.6,75,266.7,75z"/>
	</g>
</g>
</svg>
