<?xml version="1.0" encoding="utf-8"?>
<!-- Generator: Adobe Illustrator 21.0.0, SVG Export Plug-In . SVG Version: 6.00 Build 0)  -->
<svg version="1.1" id="Layer_1" xmlns="http://www.w3.org/2000/svg" xmlns:xlink="http://www.w3.org/1999/xlink" x="0px" y="0px"
	 viewBox="0 0 512 512" style="enable-background:new 0 0 512 512;" xml:space="preserve">
<style type="text/css">
	.st0{fill:#00AD85;}
	.st1{fill:#B7E4EF;}
	.st2{fill:#545861;}
</style>
<path class="st0" d="M369.7,62.3l54.5-52.7h16.1l62.7,64l-20,44c0,0-43.3,33.3-43.3,31.3s-77.3-78.7-77.3-78.7L369.7,62.3z"/>
<path class="st1" d="M69,438.3l292.7-286l40.7,40c0,0-286.7,294-291.3,290S69,438.3,69,438.3z"/>
<g transform="translate(1)">
	<g>
		<g>
			<path class="st2" d="M399.3,399.4c-13.7,12.8-13.7,34.1,0,47.8c6.8,6.8,15.4,10.2,23.9,10.2s17.1-3.4,23.9-10.2
				c13.7-12.8,13.7-34.1,0-47.8C434.3,385.7,413,385.7,399.3,399.4z M435.2,436.1c-6.8,6.8-17.1,6.8-23.9,0s-6.8-17.1,0-23.9
				c3.4-3.4,7.7-5.1,11.9-5.1s8.5,1.7,11.9,5.1C442,419,442,429.2,435.2,436.1z"/>
			<path class="st2" d="M505.1,409.6L351.5,256l60.6-60.6l0,0l35.8-35.8l0,0l52.1-52.1c14.5-14.5,14.5-38.4,0-52.9l-43.5-43.5
				C449.7,4.3,440.3,0,430,0s-19.6,4.3-26.5,11.1l-52.1,52.1L315.7,99l-60.6,60.6L103.2,7.7c-9.4-9.4-26.5-9.4-35.8,0L6.8,68.3
				c-10.2,9.4-10.2,25.6,0,35.8L24.7,122l0,0l0,0l48.6,48.6l0,0l0,0l47.8,47.8l0,0c0,0,0,0,0,0l37.5,37.5l-137,137
				c-2.6,1.1-3.9,3.4-4.7,6.4L-0.9,501.8c0,3.4,0.9,6,2.6,7.7c1.7,1.7,3.4,2.6,6,2.6c0.9,0,0.9,0,1.7,0l98.4-18.2
				c0.7,0.2,1.4,0.3,2.2,0.3c2.6,0,5.1-0.9,6-2.6l139.1-139.1l11.1,11.1c0,0,0,0,0,0l0,0l23.9,23.9c0,0,0,0,0,0l0,0L408.7,506
				c4.3,4.3,9.4,6,14.5,6s10.2-1.7,13.7-6l68.3-68.3C512.8,430.1,512.8,417.3,505.1,409.6z M110,472.7l-29.9-29.9L363.9,160
				l29.4,29.4L110,472.7z M415.5,23c7.7-7.7,21.3-7.7,29,0l43.5,43.5c7.7,7.7,7.7,21.3,0,29L442,141.7l-72.5-72.5L415.5,23z
				 M357.5,81.1l36.3,36.3l36.3,36.3l-23.9,23.9L333.6,105L357.5,81.1z M163.4,236.8l18.3-18.3c3.4-3.4,3.4-8.5,0-11.9
				s-8.5-3.4-11.9,0l-18.3,18.3l-12.4-12.4l29.9-29.9c3.4-3.4,3.4-8.5,0-11.9s-8.5-3.4-11.9,0l-29.9,29.9l-11.9-11.9l17.9-17.9
				c3.4-3.4,3.4-8.5,0-11.9s-8.5-3.4-11.9,0l-17.9,17.9l-11.9-11.9l29.9-29.9c3.4-3.4,3.4-8.5,0-11.9s-8.5-3.4-11.9,0l-29.9,29.9
				l-12.8-12.8L84.4,122c3.4-3.4,3.4-8.5,0-11.9s-8.5-3.4-11.9,0L54.6,128l-11.9-11.9l29.9-29.9c3.4-3.4,3.4-8.5,0-11.9
				s-8.5-3.4-11.9,0l-29.9,29.9L18.7,92.2c-3.4-3.4-3.4-8.5,0-11.9l60.6-60.6c1.7-1.7,3.4-2.6,6-2.6c1.7,0,4.3,0.9,6,2.6
				l151.9,151.9l-72.5,72.5L163.4,236.8z M321.7,117.8l29.9,29.9L67.8,430.5l-29.4-29.4L321.7,117.8z M31.5,418.1l28,28
				c0.4,1,1,1.9,1.9,2.7l30.8,30.8l-73.5,12.7L31.5,418.1z M493.2,425.8l-68.3,68.3c-0.9,0.9-3.4,0.9-4.3,0l-88.3-88.3l30.3-30.3
				c3.4-3.4,3.4-8.5,0-11.9c-3.4-3.4-8.5-3.4-11.9,0l-30.3,30.3L308,381.4l17.9-17.9c3.4-3.4,3.4-8.5,0-11.9
				c-3.4-3.4-8.5-3.4-11.9,0l-17.9,17.9l-11.9-11.9l29.9-29.9c3.4-3.4,3.4-8.5,0-11.9c-3.4-3.4-8.5-3.4-11.9,0l-29.9,29.9l-5.1-5.1
				l72.5-72.5l153.6,153.6C494,422.4,494,425,493.2,425.8z"/>
		</g>
	</g>
</g>
</svg>
