<?xml version="1.0" encoding="utf-8"?>
<!-- Generator: Adobe Illustrator 21.0.0, SVG Export Plug-In . SVG Version: 6.00 Build 0)  -->
<svg version="1.1" id="Capa_1" xmlns="http://www.w3.org/2000/svg" xmlns:xlink="http://www.w3.org/1999/xlink" x="0px" y="0px"
	 viewBox="0 0 60 60" style="enable-background:new 0 0 60 60;" xml:space="preserve">
<style type="text/css">
	.st0{fill:#00AD85;}
	.st1{fill:#B7E4EF;}
	.st2{fill:#545861;}
</style>
<path class="st0" d="M48.7,38c0.5-0.1,4.8-3.8,4.8-3.8l5.2,5.2l-4.4,4.2L48.7,38z"/>
<polygon class="st1" points="33,1.8 32.7,14.6 46.6,14.6 "/>
<g>
	<path class="st2" d="M36.7,22h-25c-0.6,0-1,0.4-1,1s0.4,1,1,1h25c0.6,0,1-0.4,1-1S37.3,22,36.7,22z"/>
	<path class="st2" d="M11.7,16h10c0.6,0,1-0.4,1-1s-0.4-1-1-1h-10c-0.6,0-1,0.4-1,1S11.2,16,11.7,16z"/>
	<path class="st2" d="M36.7,30h-25c-0.6,0-1,0.4-1,1s0.4,1,1,1h25c0.6,0,1-0.4,1-1S37.3,30,36.7,30z"/>
	<path class="st2" d="M28.7,38h-17c-0.6,0-1,0.4-1,1s0.4,1,1,1h17c0.6,0,1-0.4,1-1S29.3,38,28.7,38z"/>
	<path class="st2" d="M25.7,48c0.6,0,1-0.4,1-1s-0.4-1-1-1h-14c-0.6,0-1,0.4-1,1s0.4,1,1,1H25.7z"/>
	<path class="st2" d="M2.7,2h29v14h14v18h2V14.6L33.1,0H0.7v60h29v-2h-27C2.7,58,2.7,2,2.7,2z M33.7,3.4L44.3,14H33.7V3.4z"/>
	<path class="st2" d="M58.4,37.2l-2.8-2.8c-1.1-1.1-3.1-1.1-4.2,0L35.9,49.7l-2.1,7.8L33.3,58c-0.4,0.4-0.4,1,0,1.4l0,0l0,0
		c0.2,0.2,0.4,0.3,0.7,0.3c0.3,0,0.5-0.1,0.7-0.3l0.5-0.5l7.8-2.1l15.4-15.4c0.6-0.6,0.9-1.3,0.9-2.1S59,37.7,58.4,37.2z M38.3,50.2
		L48.5,40l4.2,4.2L42.5,54.5L38.3,50.2z M37.4,52.1l3.2,3.2l-4.4,1.2L37.4,52.1z M57,40l-2.8,2.8l-4.2-4.2l2.8-2.8
		c0.4-0.4,1-0.4,1.4,0l2.8,2.8c0.2,0.2,0.3,0.4,0.3,0.7C57.3,39.5,57.2,39.8,57,40z"/>
</g>
</svg>
