<svg xmlns="http://www.w3.org/2000/svg" viewBox="0 0 527 528" width="527" height="528">
	<style>
		tspan { white-space:pre }
		.shp0 { fill: #fb636b } 
		.shp1 { fill: #404040 } 
		.shp2 { fill: #2d5f3b } 
		.shp3 { fill: #f74c55 } 
		.shp4 { fill: #ee732f } 
	</style>
	<path id="Ellipse 1 copy 7" class="shp0" d="M77.6,76.79c-103.12,102.67 -103.49,269.51 -0.82,372.63c102.67,103.12 269.51,103.49 372.63,0.82c103.12,-102.67 103.49,-269.51 0.82,-372.63c-102.67,-103.12 -269.51,-103.49 -372.63,-0.82z" />
	<path id="Ellipse 1 copy 6" class="shp1" d="M120.04,83.98c-90.96,90.56 -91.28,237.7 -0.72,328.66c90.56,90.96 237.7,91.28 328.66,0.72c90.96,-90.56 91.28,-237.7 0.72,-328.66c-90.56,-90.96 -237.7,-91.28 -328.66,-0.72z" />
	<path id="Ellipse 1 copy 6" class="shp2" d="M169.98,91.91c-74.96,74.64 -75.23,195.91 -0.59,270.87c74.64,74.96 195.91,75.23 270.87,0.59c74.96,-74.64 75.23,-195.91 0.59,-270.87c-74.64,-74.96 -195.91,-75.23 -270.87,-0.59z" />
	<path id="Ellipse 1 copy 6" class="shp3" d="M232.86,102.58c-54.81,54.57 -55,143.23 -0.43,198.04c54.57,54.81 143.23,55 198.04,0.43c54.81,-54.57 55,-143.23 0.43,-198.04c-54.57,-54.81 -143.23,-55 -198.04,-0.43z" />
	<path id="Ellipse 1 copy 6" class="shp4" d="M276.78,111.71c-40.15,39.97 -40.29,104.92 -0.32,145.07c39.97,40.15 104.92,40.29 145.07,0.32c40.15,-39.97 40.29,-104.92 0.32,-145.07c-39.97,-40.15 -104.92,-40.29 -145.07,-0.32z" />
</svg>