<svg xmlns="http://www.w3.org/2000/svg" viewBox="0 0 870 871" width="870" height="871">
	<style>
		tspan { white-space:pre }
		.shp0 { fill: #fb636b } 
		.shp1 { fill: #404040 } 
		.shp2 { fill: #f74c55 } 
		.shp3 { fill: #ee732f } 
		.shp4 { fill: #d05b8f } 
		.shp5 { fill: #82a3ad } 
		.shp6 { fill: #2d5f3b } 
	</style>
	<path id="Ellipse 1 copy 5" class="shp0" d="M435,0c240.24,0 435,194.76 435,435c0,240.24 -194.76,435 -435,435c-240.24,0 -435,-194.76 -435,-435c0,-240.24 194.76,-435 435,-435z" />
	<path id="Ellipse 1 copy 5" class="shp1" d="M76.48,379.23c0,198 160.51,358.52 358.52,358.52c198,0 358.52,-160.51 358.52,-358.52c0,-198 -160.51,-358.52 -358.52,-358.52c-198,0 -358.52,160.51 -358.52,358.52z" />
	<path id="Ellipse 1 copy 5" class="shp2" d="M173.68,309.92c0,144.76 117.35,262.12 262.12,262.12c144.76,0 262.12,-117.35 262.12,-262.12c0,-144.76 -117.35,-262.12 -262.12,-262.12c-144.76,0 -262.12,117.35 -262.12,262.12z" />
	<path id="Ellipse 1 copy 5" class="shp3" d="M243.79,263.71c0,106.04 85.96,192.01 192.01,192.01c106.04,0 192.01,-85.96 192.01,-192.01c0,-106.04 -85.96,-192.01 -192.01,-192.01c-106.04,0 -192.01,85.96 -192.01,192.01z" />
	<path id="Ellipse 1 copy 5" class="shp4" d="M299.56,221.48c0,74.8 60.64,135.44 135.44,135.44c74.8,0 135.44,-60.64 135.44,-135.44c0,-74.8 -60.64,-135.44 -135.44,-135.44c-74.8,0 -135.44,60.64 -135.44,135.44z" />
	<path id="Ellipse 1 copy 4" class="shp5" d="M202.6,276.66c0,128.35 104.05,232.4 232.4,232.4c128.35,0 232.4,-104.05 232.4,-232.4c0,-128.35 -104.05,-232.4 -232.4,-232.4c-128.35,0 -232.4,104.05 -232.4,232.4z" />
	<path id="Ellipse 1 copy 3" class="shp6" d="M243.46,246.87c0,105.78 85.75,191.54 191.54,191.54c105.78,0 191.54,-85.75 191.54,-191.54c0,-105.78 -85.75,-191.54 -191.54,-191.54c-105.78,0 -191.54,85.75 -191.54,191.54z" />
	<path id="Ellipse 1 copy 2" class="shp2" d="M295.39,209.84c0,77.34 62.7,140.03 140.03,140.03c77.34,0 140.03,-62.7 140.03,-140.03c0,-77.34 -62.7,-140.03 -140.03,-140.03c-77.34,0 -140.03,62.7 -140.03,140.03z" />
	<path id="Ellipse 1 copy" class="shp3" d="M332.85,185.15c0,56.65 45.93,102.58 102.58,102.58c56.65,0 102.58,-45.93 102.58,-102.58c0,-56.65 -45.93,-102.58 -102.58,-102.58c-56.65,0 -102.58,45.93 -102.58,102.58z" />
</svg>