<?xml version="1.0" encoding="utf-8"?>
<!-- Generator: Adobe Illustrator 21.0.0, SVG Export Plug-In . SVG Version: 6.00 Build 0)  -->
<svg version="1.1" id="Layer_1" xmlns="http://www.w3.org/2000/svg" xmlns:xlink="http://www.w3.org/1999/xlink" x="0px" y="0px"
	 viewBox="0 0 512 512" style="enable-background:new 0 0 512 512;" xml:space="preserve">
<style type="text/css">
	.st0{fill:#B7E4EF;}
	.st1{fill:#00AD85;stroke:#000000;stroke-miterlimit:10;}
	.st2{fill:#545861;}
</style>
<path class="st0" d="M262.3,256H222c-6.6,0-12-5.4-12-12v-65c0-6.6,5.4-12,12-12h40.3c6.6,0,12,5.4,12,12v65
	C274.3,250.6,268.9,256,262.3,256z"/>
<path class="st1" d="M148.7,302c2.3-2.3,32.3-34,32.3-34l25.7-4c0,0,33.2,50.3,35.4,49s35.6-50.7,35.6-50.7l44.7,23.7
	c0,0,6,19.3,6.7,20.3S303,343,303,343s-56.8,11.7-60.9,11.7s-52.8-9-52.8-9S157,322,156,321S148.7,302,148.7,302z"/>
<g>
	<g>
		<g>
			<path class="st2" d="M508.9,444L406.4,341.5h67.2c5.8,0,10.5-4.7,10.5-10.5v-47.1c0-18.7-10.3-35.1-25.5-43.8
				c3.7-5.4,5.9-11.9,5.9-18.9v-29.8c0-18.4-15-33.3-33.3-33.3h-11.5c-7.8,0-15,2.5-21,6.7c-27.9-58.5-87.7-99-156.7-99
				c-68.6,0-128.1,40-156.2,98c-5.3-3.6-11.8-5.8-18.7-5.8H55.6c-19.9,0-36.1,16.2-36.1,36.1v24.3c0,7.9,2.5,15.2,6.8,21.1
				C10.7,248.1,0,264.8,0,283.9V331c0,5.8,4.7,10.5,10.5,10.5h91.3c31.6,43.3,82.7,71.5,140.3,71.5c30,0,59.3-7.7,85.2-22.3
				l117.5,117.5c2.1,2.1,4.7,3.1,7.4,3.1s5.4-1,7.4-3.1l49.3-49.3C513,454.8,513,448.1,508.9,444z M419.8,179.1h11.5
				c6.8,0,12.3,5.5,12.3,12.3v29.8c0,6.8-5.5,12.3-12.3,12.3h-11.5c-1.5,0-2.9-0.2-4.2-0.6c-0.6-16.3-3.5-32.1-8.3-47
				C409.9,181.8,414.5,179.1,419.8,179.1z M415,254.6h18.8c16.2,0,29.3,13.2,29.3,29.3v36.6h-67.6C406.4,300,413,277.7,415,254.6z
				 M40.6,194.1c0-8.3,6.7-15,15-15h11.5c4.3,0,8,2.2,10.2,5.5c-5.1,15.4-8.2,31.8-8.8,48.8c-0.5,0.1-1,0.1-1.5,0.1H55.6
				c-8.3,0-15-6.7-15-15C40.6,218.5,40.6,194.1,40.6,194.1z M21,320.5v-36.6c0-16.2,13.2-29.3,29.3-29.3h18.8
				c2.1,23.6,8.9,45.9,19.5,65.9H21z M452.2,485.8L336.4,370c-2-2-4.7-3.1-7.4-3.1c-1.9,0-3.9,0.5-5.6,1.6
				c-24.3,15.3-52.4,23.4-81.2,23.4c-84.1,0-152.5-68.4-152.5-152.5S158,86.9,242.1,86.9s152.5,68.4,152.5,152.5
				c0,29.8-8.6,58.6-24.8,83.4c-2.7,4.2-2.2,9.7,1.4,13.2l115.4,115.4L452.2,485.8z"/>
			<path class="st2" d="M242.1,113.2c-69.6,0-126.2,56.6-126.2,126.2s56.6,126.2,126.2,126.2S368.3,309,368.3,239.4
				S311.7,113.2,242.1,113.2z M242.1,344.6c-31.8,0-60.4-14.2-79.7-36.6c2.5-19.9,20.5-30.5,40.7-33.2l30,47.2
				c1.9,3,5.3,4.9,8.9,4.9c3.6,0,6.9-1.8,8.9-4.9l30-47.2c20.2,2.7,38.3,13.3,40.7,33.2C302.4,330.4,273.9,344.6,242.1,344.6z
				 M245.5,253.1h-6.8c-16.9,0-24.5-14.4-24.5-28.7V206c0-14.3,7.6-28.7,24.5-28.7h6.8c16.9,0,24.5,14.4,24.5,28.7v18.4
				C270,238.7,262.4,253.1,245.5,253.1z M256.5,274.1l-14.4,22.7l-14.4-22.7H256.5z M282.9,253.8c5.2-8.1,8.1-18.1,8.1-29.4V206
				c0-28.8-19.1-49.7-45.5-49.7h-6.8c-26.4,0-45.5,20.9-45.5,49.7v18.4c0,11.3,2.9,21.3,8.1,29.4c-24.8,3-43.9,14.8-53.5,32.2
				c-7-14.1-10.9-29.9-10.9-46.6c0-58,47.2-105.2,105.2-105.2c58,0,105.2,47.2,105.2,105.2c0,16.7-3.9,32.6-10.9,46.6
				C326.8,268.6,307.7,256.8,282.9,253.8z"/>
			<path class="st2" d="M242.1,41.8c5.8,0,10.5-4.7,10.5-10.5v-20c0-5.8-4.7-10.5-10.5-10.5c-5.8,0-10.5,4.7-10.5,10.5v20
				C231.6,37.1,236.3,41.8,242.1,41.8z"/>
			<path class="st2" d="M336.2,67c1.7,1,3.5,1.4,5.2,1.4c3.6,0,7.2-1.9,9.1-5.3l10-17.3c2.9-5,1.2-11.5-3.9-14.4
				c-5-2.9-11.5-1.2-14.4,3.8l-10,17.3C329.4,57.7,331.1,64.1,336.2,67z"/>
			<path class="st2" d="M133.7,63.2c1.9,3.4,5.5,5.3,9.1,5.3c1.8,0,3.6-0.5,5.2-1.4c5-2.9,6.8-9.3,3.9-14.4l-10-17.3
				c-2.9-5-9.3-6.8-14.4-3.9c-5,2.9-6.8,9.3-3.8,14.4L133.7,63.2z"/>
		</g>
	</g>
</g>
</svg>
