<?xml version="1.0" encoding="iso-8859-1"?>
<!-- Generator: Adobe Illustrator 19.0.0, SVG Export Plug-In . SVG Version: 6.00 Build 0)  -->
<svg version="1.1" id="Layer_1" xmlns="http://www.w3.org/2000/svg" xmlns:xlink="http://www.w3.org/1999/xlink" x="0px" y="0px"
	 viewBox="0 0 511.999 511.999" style="enable-background:new 0 0 511.999 511.999;" xml:space="preserve">
<g>
	<g>
		<path d="M472.191,19.968H39.808C17.857,19.968,0,37.825,0,59.775v263.81c0,21.958,17.857,39.823,39.808,39.823h131.468
			c-3.081,16.557-17.626,29.135-35.063,29.135c-2.882,0-5.516,1.629-6.803,4.208l-17.713,35.485
			c-1.177,2.357-1.049,5.156,0.337,7.396c1.386,2.24,3.832,3.604,6.466,3.604h174.253v28.642c0,11.112,9.041,20.153,20.153,20.153
			h134.582c11.112,0,20.153-9.041,20.153-20.153v-60.21c0-4.199-3.405-7.604-7.604-7.604s-7.604,3.405-7.604,7.604v18.58H307.959
			V279.128h144.472v107.195c0,4.199,3.405,7.604,7.604,7.604s7.604-3.405,7.604-7.604v-22.914h4.552
			c21.95,0,39.808-17.864,39.808-39.823V59.775C512,37.825,494.142,19.968,472.191,19.968z M292.752,392.543h-75.274
			c-4.199,0-7.604,3.405-7.604,7.604s3.405,7.604,7.604,7.604h75.274v20.277h-161.96l10.122-20.277h51.217
			c4.199,0,7.604-3.405,7.604-7.604s-3.405-7.604-7.604-7.604h-19.686c7.606-7.725,12.777-17.853,14.231-29.135h106.076V392.543z
			 M452.431,445.458v26.423c0,2.726-2.218,4.945-4.945,4.945H312.904c-2.726,0-4.945-2.218-4.945-4.945v-26.423H452.431z
			 M452.431,263.92H307.959v-26.423c0-2.726,2.218-4.945,4.945-4.945h134.582c2.726,0,4.945,2.218,4.945,4.945V263.92z
			 M496.791,323.586c0.001,13.573-11.035,24.615-24.6,24.615h-4.552v-39.189h29.152V323.586z M496.792,293.802H467.64v-56.304
			c0-11.112-9.041-20.153-20.153-20.153H312.904c-11.112,0-20.153,9.041-20.153,20.153v33.919c0,0.036-0.005,0.072-0.005,0.107
			s0.005,0.072,0.005,0.107v22.17H74.523c-4.199,0-7.604,3.405-7.604,7.604s3.405,7.604,7.604,7.604h218.229v39.189H179.49H39.808
			c-13.565,0.001-24.6-11.041-24.6-24.614v-14.574h33.968c4.199,0,7.604-3.405,7.604-7.604s-3.405-7.604-7.604-7.604H15.208V59.775
			c0-13.565,11.035-24.6,24.6-24.6h432.385c13.565,0,24.6,11.035,24.6,24.6V293.802z"/>
	</g>
</g>
<g>
	<g>
		<path d="M304.782,93.954c-75.245,0-136.462,61.217-136.462,136.462c0,4.199,3.405,7.604,7.604,7.604
			c4.199,0,7.604-3.405,7.604-7.604c0-66.86,54.394-121.254,121.254-121.254c4.199,0,7.604-3.405,7.604-7.604
			C312.386,97.359,308.981,93.954,304.782,93.954z"/>
	</g>
</g>
<g>
	<g>
		<path d="M304.782,136.669c-51.692,0-93.747,42.054-93.747,93.747c0,4.199,3.405,7.604,7.604,7.604s7.604-3.405,7.604-7.604
			c0-43.307,35.232-78.539,78.539-78.539c4.199,0,7.604-3.405,7.604-7.604S308.981,136.669,304.782,136.669z"/>
	</g>
</g>
<g>
	<g>
		<path d="M304.782,179.385c-28.139,0-51.031,22.892-51.031,51.031c0,4.199,3.405,7.604,7.604,7.604s7.604-3.405,7.604-7.604
			c0-19.753,16.07-35.823,35.823-35.823c4.199,0,7.604-3.405,7.604-7.604S308.981,179.385,304.782,179.385z"/>
	</g>
</g>
<g>
</g>
<g>
</g>
<g>
</g>
<g>
</g>
<g>
</g>
<g>
</g>
<g>
</g>
<g>
</g>
<g>
</g>
<g>
</g>
<g>
</g>
<g>
</g>
<g>
</g>
<g>
</g>
<g>
</g>
</svg>
