<svg xmlns="http://www.w3.org/2000/svg" x="0px" y="0px"
	 viewBox="0 0 496 496">
<path fill="#ffffff" d="M496,328v-48h-16v-48c0-57.344-46.656-104-104-104c-37.064,0-69.576,19.56-88,48.832V0H0v496h256h24h216v-48h-16V328H496
	z M288,248v-16c0-48.52,39.48-88,88-88c48.52,0,88,39.48,88,88v48h-32v-48c0-30.872-25.128-56-56-56s-56,25.128-56,56v48h-32V248
	z M416,232v48h-80v-48c0-22.056,17.944-40,40-40C398.056,192,416,209.944,416,232z M256,480H16V16h256v216v16v32h-16v48h16v120
	h-16V480z M480,480H280h-8v-16h208V480z M448,312v16h16v120H288V328h144v-16H272v-16h64h80h64v16H448z"/>
<path fill="#ffffff" d="M376,344c-17.648,0-32,14.352-32,32c0,14.872,10.232,27.288,24,30.864V432h16v-25.136c13.768-3.576,24-15.992,24-30.864
	C408,358.352,393.648,344,376,344z M376,392c-8.824,0-16-7.176-16-16c0-8.824,7.176-16,16-16c8.824,0,16,7.176,16,16
	C392,384.824,384.824,392,376,392z"/>
<path fill="#ffffff" d="M144,136c-61.76,0-112,50.24-112,112s50.24,112,112,112s112-50.24,112-112S205.76,136,144,136z M144,344
	c-52.936,0-96-43.064-96-96c0-52.936,43.064-96,96-96c52.936,0,96,43.064,96,96C240,300.936,196.936,344,144,344z"/>
<path fill="#ffffff" d="M207.592,240c-2.016-17.952-17.112-32-35.592-32c-19.848,0-36,16.152-36,36v8c0,11.032-8.968,20-20,20s-20-8.968-20-20
	v-8c0-11.032,8.968-20,20-20h12v-16h-12c-18.48,0-33.576,14.048-35.592,32H64v16h16.408c2.016,17.952,17.112,32,35.592,32
	c19.848,0,36-16.152,36-36v-8c0-11.032,8.968-20,20-20s20,8.968,20,20v8c0,11.032-8.968,20-20,20h-12v16h12
	c18.48,0,33.576-14.048,35.592-32H224v-16H207.592z"/>
</svg>
