<?xml version="1.0" encoding="utf-8"?>
<!-- Generator: Adobe Illustrator 21.0.0, SVG Export Plug-In . SVG Version: 6.00 Build 0)  -->
<svg version="1.1" id="Layer_1" xmlns="http://www.w3.org/2000/svg" xmlns:xlink="http://www.w3.org/1999/xlink" x="0px" y="0px"
	 viewBox="0 0 512 512" style="enable-background:new 0 0 512 512;" xml:space="preserve">
<style type="text/css">
	.st0{fill:#00AD85;}
	.st1{fill:#B7E4EF;}
	.st2{fill:#545861;}
</style>
<path class="st0" d="M375,179l-26-6l-12.5-33.3l18-20.2l-23.5-24l-28,19c0,0-21-11.5-27-14.5s0-28,0-28s-34.5-3.5-37-3.5s-5,33-5,33
	l-33,12l-20.5-17c0,0-21,20.5-24,23.5s15,21,20,27S162,175.5,162,175.5h-31.5l3.5,37l30.5,9.5l14,27.7l-21,17.8l25,25.5l22.5-16
	l33,13l-0.5,26.6c0,0,27-1.6,34.5-0.1s4-28.5,4-28.5l30.5-12.5c0,0,19.5,16,21.5,17s26.5-22,26.5-22l-19.5-28l13.5-29.5
	c0,0,27-0.5,29.5,0S375,179,375,179z M259.2,244.5c-24.2,0-43.8-20.6-43.8-46c0-25.4,19.6-46,43.8-46s43.8,20.6,43.8,46
	C303,223.9,283.4,244.5,259.2,244.5z"/>
<polygon class="st1" points="9.5,355.5 501.5,355.5 499,399 474,413 34,413 9.5,400 "/>
<g>
	<g>
		<path class="st2" d="M256,139.7c-30.3,0-55,24.7-55,55s24.7,55,55,55c30.3,0,55-24.7,55-55C311,164.4,286.3,139.7,256,139.7z
			 M256,233.1c-21.1,0-38.3-17.2-38.3-38.3s17.2-38.3,38.3-38.3c21.1,0,38.3,17.2,38.3,38.3S277.1,233.1,256,233.1z"/>
	</g>
</g>
<g>
	<g>
		<path class="st2" d="M379.3,168.6l-23.9-1.6c-2.2-8-5.4-15.7-9.5-23l15.8-18c2.9-3.3,2.7-8.3-0.4-11.4L336,89.4
			c-3.1-3.1-8.1-3.3-11.4-0.4l-4.3,3.8c-0.1,0.1-0.2,0.2-0.3,0.2l-13.4,11.8c-7.3-4.1-14.9-7.3-23-9.5l-1.6-23.9
			c-0.3-4.4-3.9-7.8-8.3-7.8h-35.7c-4.4,0-8,3.4-8.3,7.8l-1.6,23.9c-8,2.2-15.7,5.4-22.9,9.5l-18-15.8c-3.3-2.9-8.3-2.7-11.4,0.4
			l-25.2,25.2c-3.1,3.1-3.3,8.1-0.4,11.4l15.8,18c-4.1,7.3-7.3,14.9-9.5,23l-23.8,1.6c-4.4,0.3-7.8,3.9-7.8,8.3v35.7
			c0,4.4,3.4,8,7.8,8.3l23.8,1.6c2.2,8,5.4,15.7,9.5,22.9l-15.8,18c-2.9,3.3-2.7,8.3,0.4,11.4l25.2,25.2c3.1,3.1,8.1,3.3,11.4,0.4
			l18-15.8c7.3,4.1,14.9,7.3,22.9,9.5l1.6,23.8c0.3,4.4,3.9,7.8,8.3,7.8h35.7c4.4,0,8-3.4,8.3-7.8l1.6-23.8c8-2.2,15.7-5.4,23-9.5
			l18,15.8c3.3,2.9,8.3,2.7,11.4-0.4l25.2-25.2c3.1-3.1,3.3-8.1,0.4-11.4l-15.8-18c4.1-7.3,7.3-14.9,9.5-22.9l23.9-1.6
			c4.4-0.3,7.8-3.9,7.8-8.3v-35.7C387.1,172.5,383.7,168.9,379.3,168.6z M370.4,204.8l-22.2,1.5c-3.7,0.2-6.8,2.9-7.6,6.6
			c-2.2,10.3-6.2,20.1-12,29c-2,3.1-1.7,7.2,0.7,10l14.6,16.7l-14.2,14.2l-16.7-14.6c-2.8-2.5-6.9-2.8-10-0.7
			c-8.9,5.8-18.6,9.8-29,12c-3.6,0.8-6.3,3.9-6.6,7.6l-1.5,22.1H246l-1.5-22.2c-0.2-3.7-2.9-6.8-6.6-7.6c-10.3-2.2-20.1-6.2-29-12
			c-3.1-2-7.2-1.7-10,0.7l-16.7,14.6L168,268.5l14.6-16.7c2.5-2.8,2.8-6.9,0.7-10c-5.8-8.9-9.8-18.6-12-29c-0.8-3.6-3.9-6.3-7.6-6.6
			l-22.1-1.5v-20.1l22.1-1.5c3.7-0.2,6.8-2.9,7.6-6.6c2.2-10.3,6.2-20.1,12-29c2-3.1,1.7-7.2-0.7-10L168,120.9l14.2-14.2l16.7,14.6
			c2.8,2.5,6.9,2.8,10,0.7c8.9-5.8,18.6-9.8,29-12c3.6-0.8,6.3-3.9,6.6-7.6l1.5-22.2H266l1.5,22.2c0.2,3.7,2.9,6.8,6.6,7.6
			c10.3,2.2,20.1,6.2,29,12c3.1,2,7.2,1.7,10-0.7l16.7-14.6L344,121l-14.6,16.7c-2.5,2.8-2.8,6.9-0.7,10c5.8,8.9,9.8,18.6,12,29
			c0.8,3.6,3.9,6.3,7.6,6.6l22.2,1.5V204.8z"/>
	</g>
</g>
<g>
	<g>
		<path class="st2" d="M471.2,24.8H40.8C18.3,24.8,0,43,0,65.5v59.2c0,4.6,3.7,8.3,8.3,8.3s8.3-3.7,8.3-8.3V65.5
			c0-13.3,10.8-24.1,24.1-24.1h430.5c13.3,0,24.1,10.8,24.1,24.1v284.4h-52.2c-4.6,0-8.3,3.7-8.3,8.3s3.7,8.3,8.3,8.3h52.2v15.3
			c0,13.3-10.8,24.1-24.1,24.1H315.8H196.2H40.8c-13.3,0-24.1-10.8-24.1-24.1v-15.3h398.7c4.6,0,8.3-3.7,8.3-8.3s-3.7-8.3-8.3-8.3
			H16.7V152.5c0-4.6-3.7-8.3-8.3-8.3S0,147.9,0,152.5v229.3c0,22.5,18.3,40.8,40.8,40.8h142.8L163,470.6h-40c-4.6,0-8.3,3.7-8.3,8.3
			s3.7,8.3,8.3,8.3h266c4.6,0,8.3-3.7,8.3-8.3s-3.7-8.3-8.3-8.3h-40l-20.5-47.9h142.8c22.5,0,40.8-18.3,40.8-40.8V65.5
			C512,43,493.7,24.8,471.2,24.8z M330.8,470.6H181.2l14.2-33.3h121.2L330.8,470.6z"/>
	</g>
</g>
<g>
	<g>
		<path class="st2" d="M262.9,379.7c-1.9-2.9-5.6-4.3-9-3.5c-3.5,0.9-6.1,4-6.3,7.7c-0.4,7.5,9.1,11.6,14.3,6.2
			C264.7,387.3,265.1,382.9,262.9,379.7z"/>
	</g>
</g>
</svg>
