<?xml version="1.0" encoding="utf-8"?>
<!-- Generator: Adobe Illustrator 21.0.0, SVG Export Plug-In . SVG Version: 6.00 Build 0)  -->
<svg version="1.1" id="Layer_1" xmlns="http://www.w3.org/2000/svg" xmlns:xlink="http://www.w3.org/1999/xlink" x="0px" y="0px"
	 viewBox="0 0 512 512" style="enable-background:new 0 0 512 512;" xml:space="preserve">
<style type="text/css">
	.st0{fill:#00AD85;}
	.st1{fill:#B7E4EF;}
	.st2{fill:#545861;}
</style>
<path class="st0" d="M436,134.5l19-16.5c0,0,16.5-3,22.5,0s22.5,20,22.5,20l2.5,22.5c0,0-17,24.5-20,23S436,134.5,436,134.5z"/>
<path class="st1" d="M7,445h42.5V98.5l27-7.5c0,0,13.9-29,15.2-29S83,28.5,83,28.5L52,13l-26,8L7,35v22V445z"/>
<g>
	<g>
		<path class="st2" d="M389.7,31h-72.9v14.8h72.9c5.6,0,10.1,4.5,10.1,10.1c0,1.6-0.4,3.2-1.1,4.6l13.1,6.8
			c1.8-3.5,2.7-7.4,2.7-11.4C414.6,42.1,403.4,31,389.7,31z"/>
	</g>
</g>
<g>
	<g>
		<rect x="277.1" y="31" class="st2" width="18.4" height="14.8"/>
	</g>
</g>
<g>
	<g>
		<rect x="91.7" y="163.1" class="st2" width="261" height="14.8"/>
	</g>
</g>
<g>
	<g>
		<rect x="91.7" y="432.4" class="st2" width="261" height="14.8"/>
	</g>
</g>
<g>
	<g>
		<polygon class="st2" points="439.4,167.9 429,178.4 438.2,187.6 407.8,217.9 418.3,228.3 459,187.6 		"/>
	</g>
</g>
<g>
	<g>
		
			<rect x="391.9" y="229.9" transform="matrix(0.7071 -0.7071 0.7071 0.7071 -50.9435 351.5535)" class="st2" width="13.9" height="14.8"/>
	</g>
</g>
<g>
	<g>
		<path class="st2" d="M500.1,124.6l-5.5-5.5c-15.9-15.9-41.7-15.9-57.6,0l-5.3,5.3L421.2,135L394.2,162v-56.2
			c25.6-2.3,45.7-23.8,45.7-49.9c0-27.6-22.5-50.1-50.1-50.1H50.1C22.5,5.7,0,28.2,0,55.9v399.3h42.8v51.1h351.4V288.1l90.1-90.1
			l7.9-7.9l2.6-2.6l5.3-5.3c7.7-7.7,11.9-17.9,11.9-28.8S507.8,132.3,500.1,124.6z M85.7,20.5h304c19.5,0,35.4,15.9,35.4,35.4
			s-15.9,35.4-35.4,35.4h-304c9-9.1,14.6-21.6,14.6-35.4C100.3,42.1,94.7,29.6,85.7,20.5z M42.8,91.2L42.8,91.2v349.1h-28V55.9
			c0-19.5,15.9-35.4,35.4-35.4s35.4,15.9,35.4,35.4c0,19.5-15.9,35.4-35.4,35.4H42.8z M379.4,491.5L379.4,491.5H57.5V106h321.9v70.8
			l-32,32H91.7v14.8h240.9l-30.9,30.9h-210v14.8h195.2L256,300.2H91.7V315h149.6l-2.6,2.6l-8.4,28.3H91.7v14.8h134.2l-9.2,30.9h-125
			v14.8h261v-14.8h-88l37-11l19.9-19.9h31v-14.8h-16.2l43-43L379.4,491.5L379.4,491.5z M248.8,335.4l35,35L234,385.2L248.8,335.4z
			 M297.8,363.6l-42.2-42.2l176-176l42.2,42.2L297.8,363.6z M489.6,171.8l-5.3,5.3L442.1,135l5.3-5.3c10.1-10.1,26.6-10.1,36.7,0
			l5.5,5.5c4.9,4.9,7.6,11.4,7.6,18.3C497.2,160.4,494.5,166.9,489.6,171.8z"/>
	</g>
</g>
</svg>
