<?xml version="1.0" encoding="utf-8"?>
<!-- Generator: Adobe Illustrator 21.0.0, SVG Export Plug-In . SVG Version: 6.00 Build 0)  -->
<svg version="1.1" id="Capa_1" xmlns="http://www.w3.org/2000/svg" xmlns:xlink="http://www.w3.org/1999/xlink" x="0px" y="0px"
	 viewBox="0 0 512 512" style="enable-background:new 0 0 512 512;" xml:space="preserve">
<style type="text/css">
	.st0{fill:#00AD85;}
	.st1{fill:#B7E4EF;}
	.st2{fill:#545861;}
</style>
<path class="st0" d="M468.5,380.5l3-22L442,347l-3-15.5l9.5-28.5L430,288c0,0-22.5,8.5-24,8.5s-17-9-17-9L378,263c0,0-20,0-22,0
	s0,23,0,23s-8,10-10,12.5s-16.5,1.5-26,3S301.5,286,301.5,286l-17,14l7,13.5l5.5,19l-9.5,19l-24,3.5v26l11,1.5L294,391l9.5,18.3
	l-17,21.7l19,16.5l14.5-6l14.5-3.5l20,7l5,27H382l5-26.5l23.7-9l15,15.3l22.8-17.3L435,415l3-24L468.5,380.5z M367.8,401.5
	c-18.6,0-33.8-15.1-33.8-33.8c0-18.6,15.1-33.8,33.8-33.8s33.8,15.1,33.8,33.8C401.5,386.4,386.4,401.5,367.8,401.5z"/>
<path class="st1" d="M44.3,51.7V24.2L65.7,7.7h230.7l21.3,22c0,0,5.3,26.7,0,26.7C312.3,56.3,44.3,51.7,44.3,51.7z"/>
<g>
	<path class="st2" d="M472.2,348.2l-12.4-2.4c-5.8-1.1-10.4-4.9-12.5-10.4c-2.2-5.5-1.4-11.4,2.1-16.1l7.8-10.6
		c2.5-3.4,2.1-8.1-0.9-11.1l-16.8-16.8c-2.9-2.9-7.5-3.3-10.9-1l-10.4,7.1c-4.9,3.3-10.8,3.9-16.2,1.5c-5.4-2.4-9-7.1-9.9-12.9
		l-2-13c-0.6-4.2-4.2-7.2-8.4-7.2H358c-4.1,0-7.6,2.9-8.4,6.9l-3.1,16c-1.1,5.7-4.8,10.2-10.1,12.4c-5.3,2.2-11.1,1.6-15.9-1.6
		l-13.5-9.1c-3.4-2.3-8-1.9-10.9,1l-16.8,16.8c-3,3-3.4,7.7-0.9,11.1l7.8,10.6c3.5,4.8,4.3,10.6,2.1,16.1
		c-2.2,5.5-6.7,9.3-12.5,10.4l-12.4,2.4c-4,0.8-6.9,4.3-6.9,8.4v23.7c0,4.2,3.1,7.8,7.3,8.5l13,2c5.8,0.9,10.5,4.5,12.9,9.9
		c2.4,5.4,1.8,11.3-1.5,16.2l-7.1,10.4c-2.3,3.4-1.9,8,1,10.9L299,455c3,3,7.7,3.3,11.1,0.9l10.6-7.8c4.7-3.5,10.6-4.3,16.1-2.1
		c5.5,2.2,9.3,6.7,10.4,12.5l2.4,12.4c0.8,4,4.3,6.9,8.4,6.9h23.7c4.2,0,7.8-3.1,8.5-7.3l1.4-9.1c0.9-5.9,4.7-10.7,10.2-13
		c5.5-2.3,11.6-1.5,16.4,2l7.4,5.5c3.4,2.5,8.1,2.1,11.1-0.9l16.8-16.8c2.9-2.9,3.3-7.5,1-10.9l-7.1-10.4
		c-3.3-4.9-3.9-10.8-1.5-16.2c2.4-5.4,7.1-9,12.9-9.9l13-2c4.2-0.6,7.2-4.2,7.2-8.5v-23.7C479.1,352.5,476.2,349,472.2,348.2z
		 M462,373l-5.7,0.9c-11.6,1.8-21.3,9.3-26,20c-4.7,10.7-3.6,23,3,32.6l3.1,4.6l-6.6,6.6l-1.5-1.1c-9.7-7.1-22-8.6-33.1-4
		c-11.1,4.6-18.8,14.4-20.6,26.2l-0.3,1.9h-9.3l-1-5.4c-2.2-11.5-10.1-20.9-21-25.2c-10.9-4.3-23.1-2.7-32.5,4.2l-4.7,3.4l-6.6-6.6
		l3.1-4.6c6.6-9.7,7.7-21.9,3-32.6c-4.7-10.7-14.4-18.2-26-20l-5.7-0.9v-9.3l5.4-1c11.5-2.2,20.9-10.1,25.2-21
		c4.3-10.9,2.7-23.1-4.2-32.5l-3.4-4.7l6.6-6.6l7.6,5.2c9.5,6.4,21.5,7.6,32.1,3.3c10.6-4.4,18.2-13.7,20.4-25l1.7-9h9.3l0.9,5.7
		c1.8,11.6,9.3,21.3,20,26c10.7,4.7,23,3.6,32.6-3l4.6-3.1l6.6,6.6l-3.4,4.7c-6.9,9.4-8.5,21.6-4.2,32.5c4.3,10.9,13.7,18.7,25.2,21
		l5.4,1V373z"/>
	<path class="st2" d="M367.9,323.7c-23.6,0-42.8,19.2-42.8,42.8c0,23.6,19.2,42.8,42.8,42.8c23.6,0,42.8-19.2,42.8-42.8
		C410.7,342.9,391.5,323.7,367.9,323.7z M367.9,392.2c-14.2,0-25.7-11.5-25.7-25.7c0-14.2,11.5-25.7,25.7-25.7
		c14.2,0,25.7,11.5,25.7,25.7C393.6,380.7,382,392.2,367.9,392.2z"/>
	<path class="st2" d="M145.4,41.3h34.2c4.7,0,8.6-3.8,8.6-8.6s-3.8-8.6-8.6-8.6h-34.2c-4.7,0-8.6,3.8-8.6,8.6S140.7,41.3,145.4,41.3
		z"/>
	<path class="st2" d="M205.3,41.3h8.6c4.7,0,8.6-3.8,8.6-8.6s-3.8-8.6-8.6-8.6h-8.6c-4.7,0-8.6,3.8-8.6,8.6S200.6,41.3,205.3,41.3z"
		/>
	<path class="st2" d="M145.4,452.1c0,18.9,15.4,34.2,34.2,34.2s34.2-15.4,34.2-34.2c0-18.9-15.4-34.2-34.2-34.2
		S145.4,433.2,145.4,452.1z M196.7,452.1c0,9.4-7.7,17.1-17.1,17.1s-17.1-7.7-17.1-17.1s7.7-17.1,17.1-17.1S196.7,442.7,196.7,452.1
		z"/>
	<path class="st2" d="M231,392.2H51.3V67H308v188.3c0,4.7,3.8,8.6,8.6,8.6s8.6-3.8,8.6-8.6v-219c0-20.8-16.9-37.7-37.7-37.7H71.8
		c-20.8,0-37.7,16.9-37.7,37.7v438.1c0,20.8,16.9,37.7,37.7,37.7h150.6c4.7,0,8.6-3.8,8.6-8.6c0-4.7-3.8-8.6-8.6-8.6H71.8
		c-11.3,0-20.6-9.2-20.6-20.6v-65H231c4.7,0,8.6-3.8,8.6-8.6C239.5,396,235.7,392.2,231,392.2z M71.8,15.6h215.6
		c11.4,0,20.6,9.2,20.6,20.6v13.6H51.3V36.2C51.3,24.9,60.5,15.6,71.8,15.6z"/>
</g>
</svg>
