<svg xmlns="http://www.w3.org/2000/svg" x="0px" y="0px"
	 viewBox="0 0 469.333 469.333">
<path fill="#ffffff" d="M403.233,229.374c1.272-9.288,2.1-18.199,2.1-26.707C405.333,90.917,314.417,0,202.667,0S0,90.917,0,202.667
	s90.917,202.667,202.667,202.667c8.557,0,17.462-0.823,26.707-2.102c21.854,39.372,63.824,66.102,111.96,66.102
	c70.583,0,128-57.417,128-128C469.333,293.199,442.604,251.228,403.233,229.374z M220.408,382.93
	c-6.089,0.65-12.017,1.07-17.741,1.07c-99.979,0-181.333-81.344-181.333-181.333S102.687,21.333,202.667,21.333
	S384,102.677,384,202.667c0,5.695-0.427,11.629-1.081,17.738c-13.06-4.505-27.014-7.072-41.586-7.072
	c-70.583,0-128,57.417-128,128C213.333,355.909,215.9,369.867,220.408,382.93z M341.333,448
	c-58.813,0-106.667-47.854-106.667-106.667s47.854-106.667,106.667-106.667S448,282.521,448,341.333S400.146,448,341.333,448z"/>
<path fill="#ffffff" d="M336,298.667h37.333c5.896,0,10.667-4.771,10.667-10.667c0-5.896-4.771-10.667-10.667-10.667H352v-10.667
	c0-5.896-4.771-10.667-10.667-10.667s-10.667,4.771-10.667,10.667v11.206c-18.046,2.615-32,18.036-32,36.794
	C298.667,335.25,315.417,352,336,352h10.667c8.813,0,16,7.177,16,16c0,8.823-7.188,16-16,16h-37.333
	c-5.896,0-10.667,4.771-10.667,10.667c0,5.896,4.771,10.667,10.667,10.667h21.333V416c0,5.896,4.771,10.667,10.667,10.667
	S352,421.896,352,416v-11.206c18.046-2.615,32-18.036,32-36.794c0-20.583-16.75-37.333-37.333-37.333H336
	c-8.813,0-16-7.177-16-16S327.188,298.667,336,298.667z"/>
<path fill="#ffffff" d="M202.667,64C196.771,64,192,68.771,192,74.667V198.25l-60.875,60.875c-4.167,4.167-4.167,10.917,0,15.083
	c2.083,2.083,4.813,3.125,7.542,3.125s5.458-1.042,7.542-3.125l64-64c2-2,3.125-4.708,3.125-7.542v-128
	C213.333,68.771,208.562,64,202.667,64z"/>
</svg>
