<?xml version="1.0" encoding="utf-8"?>
<!-- Generator: Adobe Illustrator 21.0.0, SVG Export Plug-In . SVG Version: 6.00 Build 0)  -->
<svg version="1.1" id="Layer_1" xmlns="http://www.w3.org/2000/svg" xmlns:xlink="http://www.w3.org/1999/xlink" x="0px" y="0px"
	 viewBox="0 0 489 489" style="enable-background:new 0 0 489 489;" xml:space="preserve">
<style type="text/css">
	.st0{fill:#00AD85;}
	.st1{fill:#B7E4EF;}
	.st2{fill:#545861;}
</style>
<polygon class="st0" points="187.5,287 218,287 228.5,458 199.5,478.5 177,454.5 "/>
<path class="st1" d="M287.2,427l18.2-26.5l-26.5-39c0,0,10.5-69.5,15.5-71.5s49.4-36.5,50.5-37s57,1.7,61,4.1s46,45.4,46,45.4l12,47
	l-16.5,43c0,0-39.5,32-41,34.5s-36,4-37.5,4s-32-7.5-32-7.5l-14-1l-27.5,14L287.2,427z"/>
<g>
	<g>
		<path class="st2" d="M272.5,181.2c9.3-8.1,14.7-19.8,14.7-32.3V75.8c0-41.8-34-75.8-75.8-75.8h-15.7c-41.8,0-75.8,34-75.8,75.8
			v73.1c0,12.5,5.4,24.2,14.7,32.3v61.5c-15.2,7.7-60.3,31.7-102.2,66.1c-10.5,8.6-16.5,21.4-16.5,35v50.1c0,5.5,4.4,9.9,9.9,9.9
			s9.9-4.4,9.9-9.9v-50.1c0-7.7,3.4-14.9,9.3-19.7c44.5-36.6,92.9-61,102.1-65.5c4.5-2.2,7.4-6.8,7.4-11.8v-70.5
			c0-3.3-1.7-6.4-4.4-8.2c-6.5-4.3-10.3-11.5-10.3-19.2V75.8c0-30.9,25.1-56,56-56h15.6c30.9,0,56,25.1,56,56v73.1
			c0,7.7-3.9,14.9-10.3,19.2c-2.8,1.8-4.4,4.9-4.4,8.2v70.5c0,5.5,4.4,9.9,9.9,9.9s9.9-4.4,9.9-9.9L272.5,181.2L272.5,181.2z"/>
		<path class="st2" d="M227.9,257.1c-5.5,0-9.9,4.4-9.9,9.9c0,4.1-1.8,7.9-4.6,10.5c-0.6,0.4-1.2,0.9-1.7,1.4c-2.3,1.5-5,2.4-8,2.4
			c-7.9,0-14.3-6.4-14.3-14.3c0-5.5-4.4-9.9-9.9-9.9s-9.9,4.4-9.9,9.9c0,8.1,2.8,15.5,7.5,21.3l-7.3,169.3c-0.1,2.9,1.1,5.8,3.3,7.8
			l23.2,21c1.9,1.7,4.3,2.6,6.6,2.6c2.4,0,4.8-0.9,6.6-2.6l23.6-21.3c2.2-2,3.4-4.8,3.3-7.8L228.8,290c5.6-6.1,9-14.1,9-23
			C237.8,261.6,233.2,257.1,227.9,257.1z M202.9,465.8L189.8,454l6.6-153.5c2.3,0.5,4.8,0.8,7.3,0.8c2,0,3.9-0.2,5.8-0.5l6.9,152.9
			L202.9,465.8z"/>
		<path class="st2" d="M443.5,269.8c-19-19-44.2-29.4-71.1-29.4s-52.1,10.5-71.1,29.4c-35.9,35.9-39.2,92.9-8.5,132.5
			c-3.5,6.5-7.5,10.8-11.8,13c-5.3,2.6-8.2,8.2-7.3,14.1c0.9,5.8,5.4,10.3,11.2,11.3c2.4,0.4,4.9,0.6,7.5,0.6
			c11.8,0,24.2-3.8,34.8-10.5c14,7,29.5,10.7,45.3,10.7c26.9,0,52.1-10.5,71.1-29.4c19-19,29.4-44.2,29.4-71.1
			C473,314.1,462.5,288.8,443.5,269.8z M429.5,398c-15.2,15.2-35.5,23.6-57.1,23.6c-14.4,0-28.5-3.8-40.9-11.1
			c-1.6-0.9-3.3-1.4-5-1.4c-2.2,0-4.3,0.7-6.1,2.1c-5.1,4-10.3,6.4-14.8,7.9c2.9-4,5.6-8.8,7.9-14.2c1.5-3.5,0.9-7.6-1.7-10.5
			c-28.2-31.9-26.7-80.4,3.4-110.6c15.2-15.2,35.5-23.6,57.1-23.6s41.8,8.4,57.1,23.6s23.6,35.5,23.6,57.1
			C453.1,362.5,444.8,382.8,429.5,398z"/>
		<circle class="st2" cx="372.5" cy="340.9" r="11"/>
		<circle class="st2" cx="410.9" cy="340.9" r="11"/>
		<circle class="st2" cx="334" cy="340.9" r="11"/>
	</g>
</g>
</svg>
